<svg xmlns="http://www.w3.org/2000/svg" xmlns:xlink="http://www.w3.org/1999/xlink" width="20" height="20" viewBox="0 0 20 20">
    <defs>
        <path id="prefix__a" d="M10 0c5.514 0 10 4.486 10 10s-4.486 10-10 10S0 15.514 0 10 4.486 0 10 0zm0 2c-4.411 0-8 3.589-8 8s3.589 8 8 8 8-3.589 8-8-3.589-8-8-8zm0 2c.553 0 1 .448 1 1v4.586l2.707 2.707c.391.39.391 1.023 0 1.414-.195.195-.451.293-.707.293-.256 0-.512-.098-.707-.293L9 10.414V5c0-.552.447-1 1-1z"/>
    </defs>
    <g fill="none" fill-rule="evenodd">
        <mask id="prefix__b" fill="#fff">
            <use xlink:href="#prefix__a"/>
        </mask>
        <g fill="#2175D9" mask="url(#prefix__b)">
            <path d="M0 0H20V20H0z"/>
        </g>
    </g>
</svg>
