<svg class="pb-h-10 pb-w-10 pb-fill-white" id="upload" xmlns="http://www.w3.org/2000/svg" width="21.466" height="21.416" viewBox="0 0 21.466 21.416"><path id="upload-2" data-name="upload" d="M20.385,12.845a1.08,1.08,0,0,0-.779.289,1.013,1.013,0,0,0-.3.767v4.3a1.08,1.08,0,0,1-.289.779,1.013,1.013,0,0,1-.767.3H3.217a1.013,1.013,0,0,1-.767-.3,1.08,1.08,0,0,1-.289-.779V13.9a1.013,1.013,0,0,0-.3-.767,1.08,1.08,0,0,0-.779-.289,1.08,1.08,0,0,0-.779.289A1.013,1.013,0,0,0,0,13.9v4.3a3.109,3.109,0,0,0,.93,2.287,3.109,3.109,0,0,0,2.287.93H18.249A3.176,3.176,0,0,0,21.466,18.2V13.9a1.013,1.013,0,0,0-.3-.767A1.08,1.08,0,0,0,20.385,12.845ZM6.133,7.164,9.652,3.62V13.9a1.045,1.045,0,0,0,.3.792,1.195,1.195,0,0,0,1.558,0,1.045,1.045,0,0,0,.3-.792V3.62l3.519,3.544a1.384,1.384,0,0,0,.352.226,1.013,1.013,0,0,0,.4.075,1.083,1.083,0,0,0,.427-.075,1.051,1.051,0,0,0,.327-1.734L11.487.276a1.3,1.3,0,0,0-.163-.138A.287.287,0,0,0,11.16.075.839.839,0,0,0,10.783,0a1.663,1.663,0,0,0-.478.075.378.378,0,0,1-.163.1.378.378,0,0,0-.163.1L4.625,5.656a1.033,1.033,0,0,0,0,1.508,1.093,1.093,0,0,0,1.508,0Z" transform="translate(0 0)"></path></svg>