<?xml version="1.0" encoding="UTF-8"?>
<svg id="_07_Color_wheel" data-name="07 Color wheel" xmlns="http://www.w3.org/2000/svg" viewBox="0 0 512 512">
  <defs>
    <style>
      .cls-1 {
        fill: #e6f0f0;
      }

      .cls-2 {
        fill: #f68488;
      }

      .cls-3 {
        fill: #f0cc5c;
      }

      .cls-4 {
        fill: #84f094;
      }

      .cls-5 {
        fill: #41516c;
      }
    </style>
  </defs>
  <path class="cls-2" d="m256,136V8c-68.48,0-130.48,27.76-175.36,72.64l90.51,90.51c21.72-21.72,51.72-35.15,84.85-35.15Z"/>
  <path class="cls-1" d="m171.15,171.15l-90.51-90.51C35.76,125.52,8,187.52,8,256h128c0-33.14,13.43-63.14,35.15-84.85Z"/>
  <path class="cls-4" d="m340.85,171.15l90.51-90.51c-44.88-44.88-106.88-72.64-175.36-72.64v128c33.14,0,63.14,13.43,84.85,35.15Z"/>
  <path class="cls-3" d="m376,256h128c0-68.48-27.76-130.48-72.64-175.36l-90.51,90.51c21.72,21.72,35.15,51.72,35.15,84.85Z"/>
  <path class="cls-4" d="m171.15,340.85l-90.51,90.51c44.88,44.88,106.88,72.64,175.36,72.64v-128c-33.14,0-63.14-13.43-84.85-35.15Z"/>
  <path class="cls-1" d="m376,256c0,33.14-13.43,63.14-35.15,84.85l90.51,90.51c44.88-44.88,72.64-106.88,72.64-175.36h-128Z"/>
  <path class="cls-3" d="m136,256H8c0,68.48,27.76,130.48,72.64,175.36l90.51-90.51c-21.72-21.72-35.15-51.72-35.15-84.85Z"/>
  <path class="cls-2" d="m256,376v128c68.48,0,130.48-27.76,175.36-72.64l-90.51-90.51c-21.72,21.72-51.72,35.15-84.85,35.15Z"/>
  <path class="cls-5" d="m256,0C114.62,0,0,114.62,0,256s114.62,256,256,256,256-114.62,256-256S397.38,0,256,0Zm239.85,248h-112.11c-1.81-29.28-13.52-55.92-31.8-76.63l79.24-79.24c38.48,41.11,62.69,95.72,64.67,155.86ZM264,16.15c60.15,1.98,114.75,26.19,155.86,64.67l-79.24,79.24c-20.7-18.28-47.35-29.99-76.63-31.8V16.15Zm-16,0v112.11c-29.28,1.81-55.92,13.52-76.63,31.8l-79.24-79.24c41.11-38.48,95.72-62.69,155.86-64.67ZM80.82,92.14l79.24,79.24c-18.28,20.7-29.99,47.35-31.8,76.63H16.15c1.98-60.15,26.19-114.75,64.67-155.86ZM16.15,264h112.11c1.81,29.28,13.52,55.92,31.8,76.63l-79.24,79.24c-38.48-41.11-62.69-95.72-64.67-155.86Zm231.85,231.85c-60.15-1.98-114.75-26.19-155.86-64.67l79.24-79.24c20.7,18.28,47.35,29.99,76.63,31.8v112.11Zm-104-239.85c0-61.76,50.24-112,112-112s112,50.24,112,112-50.24,112-112,112-112-50.24-112-112Zm120,239.85v-112.11c29.28-1.81,55.92-13.52,76.63-31.8l79.24,79.24c-41.11,38.48-95.72,62.69-155.86,64.67Zm167.18-75.99l-79.24-79.24c18.28-20.7,29.99-47.35,31.8-76.63h112.11c-1.98,60.15-26.19,114.75-64.67,155.86Z"/>
</svg>