<?xml version="1.0" standalone="no"?>
<!DOCTYPE svg PUBLIC "-//W3C//DTD SVG 20010904//EN"
 "http://www.w3.org/TR/2001/REC-SVG-20010904/DTD/svg10.dtd">
<svg version="1.0" xmlns="http://www.w3.org/2000/svg"
 width="100.000000pt" height="620.000000pt" viewBox="0 0 100.000000 620.000000"
 preserveAspectRatio="xMidYMid meet">
<metadata>
Created by potrace 1.16, written by Peter Selinger 2001-2019
</metadata>
<g transform="translate(0.000000,620.000000) scale(0.100000,-0.100000)"
fill="#000000" stroke="none">
<path d="M0 6100 l0 -100 500 0 500 0 0 100 0 100 -500 0 -500 0 0 -100z"/>
<path d="M0 5500 l0 -100 500 0 500 0 0 100 0 100 -500 0 -500 0 0 -100z"/>
<path d="M0 4900 l0 -100 500 0 500 0 0 100 0 100 -500 0 -500 0 0 -100z"/>
<path d="M0 4300 l0 -100 500 0 500 0 0 100 0 100 -500 0 -500 0 0 -100z"/>
<path d="M0 3700 l0 -100 500 0 500 0 0 100 0 100 -500 0 -500 0 0 -100z"/>
<path d="M0 3100 l0 -100 500 0 500 0 0 100 0 100 -500 0 -500 0 0 -100z"/>
<path d="M0 2500 l0 -100 500 0 500 0 0 100 0 100 -500 0 -500 0 0 -100z"/>
<path d="M0 1900 l0 -100 500 0 500 0 0 100 0 100 -500 0 -500 0 0 -100z"/>
<path d="M0 1300 l0 -100 500 0 500 0 0 100 0 100 -500 0 -500 0 0 -100z"/>
<path d="M0 700 l0 -100 500 0 500 0 0 100 0 100 -500 0 -500 0 0 -100z"/>
<path d="M0 100 l0 -100 500 0 500 0 0 100 0 100 -500 0 -500 0 0 -100z"/>
</g>
</svg>
