<?xml version="1.0" standalone="no"?>
<!DOCTYPE svg PUBLIC "-//W3C//DTD SVG 20010904//EN"
 "http://www.w3.org/TR/2001/REC-SVG-20010904/DTD/svg10.dtd">
<svg version="1.0" xmlns="http://www.w3.org/2000/svg"
 width="200.000000pt" height="280.000000pt" viewBox="0 0 200.000000 280.000000"
 preserveAspectRatio="xMidYMid meet">

<g transform="translate(0.000000,280.000000) scale(0.100000,-0.100000)"
fill="#000000" stroke="none">
<path d="M0 1400 l0 -1400 1000 0 1000 0 0 1400 0 1400 -1000 0 -1000 0 0
-1400z m1800 0 l0 -1200 -800 0 -800 0 0 1200 0 1200 800 0 800 0 0 -1200z"/>
<path d="M400 1400 l0 -1000 100 0 100 0 0 1000 0 1000 -100 0 -100 0 0 -1000z"/>
</g>
</svg>
