<?xml version="1.0" standalone="no"?>
<!DOCTYPE svg PUBLIC "-//W3C//DTD SVG 20010904//EN"
 "http://www.w3.org/TR/2001/REC-SVG-20010904/DTD/svg10.dtd">
<svg version="1.0" xmlns="http://www.w3.org/2000/svg"
 width="280.000000pt" height="340.000000pt" viewBox="0 0 280.000000 340.000000"
 preserveAspectRatio="xMidYMid meet">

<g transform="translate(0.000000,340.000000) scale(0.100000,-0.100000)"
fill="#000000" stroke="none">
<path d="M0 2000 l0 -1400 400 0 400 0 0 -300 0 -300 1000 0 1000 0 0 1400 0
1400 -400 0 -400 0 0 300 0 300 -1000 0 -1000 0 0 -1400z m1800 1000 l0 -200
-500 0 -500 0 0 -1000 0 -1000 -300 0 -300 0 0 1200 0 1200 800 0 800 0 0
-200z m800 -1600 l0 -1200 -800 0 -800 0 0 1200 0 1200 800 0 800 0 0 -1200z"/>
<path d="M400 2000 l0 -1000 100 0 100 0 0 1000 0 1000 -100 0 -100 0 0 -1000z"/>
<path d="M1200 1400 l0 -1000 100 0 100 0 0 1000 0 1000 -100 0 -100 0 0
-1000z"/>
</g>
</svg>
